<svg width="99" height="12" viewBox="0 0 99 12" fill="none" xmlns="http://www.w3.org/2000/svg">
<path d="M0.666667 6C0.666667 8.94552 3.05448 11.3333 6 11.3333C8.94552 11.3333 11.3333 8.94552 11.3333 6C11.3333 3.05448 8.94552 0.666667 6 0.666667C3.05448 0.666667 0.666667 3.05448 0.666667 6ZM88.1667 6C88.1667 8.94552 90.5545 11.3333 93.5 11.3333C96.4455 11.3333 98.8333 8.94552 98.8333 6C98.8333 3.05448 96.4455 0.666667 93.5 0.666667C90.5545 0.666667 88.1667 3.05448 88.1667 6ZM6 7H93.5V5H6V7Z" fill="#313033"/>
</svg>
