<svg width="26" height="26" viewBox="0 0 26 26" fill="none" xmlns="http://www.w3.org/2000/svg">
<path d="M17.9877 0H7.68687C3.50054 0 0.0947266 3.40582 0.0947266 7.59214V17.8929C0.0947266 22.0793 3.50054 25.4851 7.68687 25.4851H17.9877C22.174 25.4851 25.5798 22.0793 25.5798 17.8929V7.59214C25.5797 3.40582 22.1739 0 17.9877 0ZM23.016 17.8929C23.016 20.67 20.7647 22.9213 17.9877 22.9213H7.68687C4.90981 22.9213 2.65852 20.67 2.65852 17.8929V7.59214C2.65852 4.81504 4.90981 2.5638 7.68687 2.5638H17.9877C20.7647 2.5638 23.016 4.81504 23.016 7.59214V17.8929Z" fill="#313033"/>
<path d="M12.8374 6.15088C9.20297 6.15088 6.24609 9.10775 6.24609 12.7422C6.24609 16.3766 9.20297 19.3335 12.8374 19.3335C16.4719 19.3335 19.4288 16.3767 19.4288 12.7422C19.4288 9.1077 16.4719 6.15088 12.8374 6.15088ZM12.8374 16.7698C10.6131 16.7698 8.80989 14.9666 8.80989 12.7422C8.80989 10.5179 10.6131 8.71468 12.8374 8.71468C15.0618 8.71468 16.865 10.5179 16.865 12.7422C16.865 14.9665 15.0618 16.7698 12.8374 16.7698Z" fill="#313033"/>
<path d="M19.4417 7.77984C20.3139 7.77984 21.0211 7.07273 21.0211 6.20047C21.0211 5.3282 20.3139 4.62109 19.4417 4.62109C18.5694 4.62109 17.8623 5.3282 17.8623 6.20047C17.8623 7.07273 18.5694 7.77984 19.4417 7.77984Z" fill="#313033"/>
</svg>
